<?xml version="1.0" encoding="UTF-8" standalone="no"?>
<!-- Created with Inkscape (http://www.inkscape.org/) -->

<svg
   width="94.183395mm"
   height="85.41597mm"
   viewBox="0 0 94.183395 85.41597"
   version="1.1"
   id="svg189354"
   xmlns="http://www.w3.org/2000/svg"
   xmlns:svg="http://www.w3.org/2000/svg">
  <defs
     id="defs189351">
    <clipPath
       clipPathUnits="userSpaceOnUse"
       id="clipPath180372">
      <path
         id="path180374"
         style="font-size:40px;line-height:1.25;font-family:Gidugu;-inkscape-font-specification:'Gidugu, Normal';white-space:pre;opacity:1;fill:#ff0000;stroke-width:0.925372"
         d="m 116.85675,129.24729 c 0,0 -1.59121,0.65839 -3.8039,2.66392 -2.1795,1.97546 -5.0256,5.48488 -6.28127,10.71097 -0.60802,2.56087 -0.78191,5.38985 -0.4005,8.27443 -0.98916,-1.17322 -2.0468,-1.951 -2.88922,-2.44533 -1.2955,-0.76021 -2.11667,-0.93327 -2.11667,-0.93327 0,0 0.5804,0.61533 1.25263,1.80092 0.67337,1.18761 1.37592,2.92996 1.44023,4.94698 0.07,1.98649 -0.4922,4.13867 -1.67277,5.81722 -0.95858,1.50597 -2.565108,2.75547 -4.362523,4.4881 -0.804225,0.71611 -1.6372,1.49767 -2.456183,2.3952 -1.059773,1.16147 -2.104083,2.52757 -2.997232,4.12688 -2.379374,4.46378 -2.289265,9.3071 -0.86093,13.04882 1.365509,3.54372 3.722489,5.69788 5.439979,6.83214 1.748575,1.15477 2.922299,1.4273 2.922299,1.4273 0,0 -0.814131,-0.90116 -1.682581,-2.57194 -0.877795,-1.68873 -1.694929,-4.07267 -1.634527,-6.73498 0.0508,-2.7841 1.059527,-5.63841 2.724383,-7.79591 0.707745,-0.99206 1.692505,-1.96144 2.765725,-3.07423 0.54576,-0.56589 1.12267,-1.17679 1.7048,-1.84227 1.86266,-1.97573 3.66525,-4.51672 4.68551,-7.60057 0.0177,-0.0579 0.0337,-0.11625 0.0506,-0.17415 0.24947,0.44243 0.52221,0.87807 0.82217,1.30329 0.86181,1.17897 1.79359,2.16717 2.71301,2.99981 0.80166,0.72599 1.59974,1.33896 2.36213,1.89601 1.61249,1.27247 3.01953,2.16825 3.96824,3.34501 1.19323,1.35698 1.94667,3.22238 2.16317,5.03691 0.22473,1.83791 -0.10651,3.5232 -0.49196,4.70617 -0.38446,1.18005 -0.77308,1.83141 -0.77308,1.83141 0,0 0.65325,-0.28431 1.61696,-1.1715 0.96366,-0.88715 2.2555,-2.45184 2.97242,-4.9196 0.28167,-0.97727 0.45792,-2.07834 0.48266,-3.24786 0.0324,0.0404 0.0665,0.0806 0.0982,0.12144 1.88147,2.21599 2.96958,5.16546 3.15588,7.97884 0.19795,2.85022 -0.52803,5.40548 -1.29605,7.18251 -0.76609,1.77257 -1.48673,2.73161 -1.48673,2.73161 0,0 1.13184,-0.36688 2.84737,-1.62626 1.71556,-1.25934 4.05214,-3.52406 5.50716,-7.24038 1.43784,-3.69733 1.85446,-8.65185 -0.19947,-13.6741 -1.75092,-4.03492 -4.44057,-7.2774 -7.15822,-9.77046 -0.92593,-0.90856 -1.83647,-1.73309 -2.69389,-2.49443 -1.50114,-1.33288 -2.88158,-2.50544 -3.94188,-3.71657 -2.68963,-2.87937 -4.59324,-6.75573 -5.19555,-10.72647 -0.58681,-3.77302 0.0539,-7.30007 0.91777,-9.88674 0.85273,-2.55316 1.78181,-4.01887 1.78181,-4.01887 z m 8.1349,63.15428 h -3.52381 v 2.93057 h 3.52381 z m -24.92096,0 h -0.008 v 2.93057 h 3.52381 v -2.93057 z m 15.14017,-0.0661 v 6.58667 c -1.05381,-1.20749 -2.34925,-1.81125 -3.88607,-1.81125 -1.80025,0 -3.18311,0.61437 -4.1491,1.84381 -0.96599,1.22944 -1.44901,2.87605 -1.44901,4.93975 0,1.95393 0.49413,3.58942 1.48208,4.90668 1.00989,1.2953 2.37103,1.94303 4.08347,1.94303 1.7344,0 3.12837,-0.73513 4.18217,-2.20607 v 1.87689 h 3.29334 v -18.07951 z m -39.484414,0.0661 v 2.93057 h 3.523811 v -2.93057 z m 10.340451,0.29611 -3.589446,2.04173 v 2.66754 h -1.613855 v 2.47013 h 1.613855 v 6.02599 c 0,1.80026 0.197546,3.06288 0.592728,3.78737 0.417131,0.70253 1.372047,1.05368 2.864945,1.05368 1.053801,0 1.987,-0.17532 2.79931,-0.52658 l -0.263551,-2.43706 c -0.658633,0.24149 -1.152774,0.36225 -1.48208,0.36225 -0.351271,0 -0.592788,-0.16471 -0.724503,-0.49403 -0.131736,-0.35127 -0.197403,-1.08691 -0.197403,-2.20658 v -5.56504 h 2.370913 v -2.47013 h -2.370913 z m 61.548183,3.22719 c -1.95394,0 -3.38075,0.68058 -4.28088,2.04174 -0.87817,1.36117 -1.31723,2.93098 -1.31723,4.70927 0,1.80025 0.47191,3.34833 1.41593,4.64364 0.94404,1.29529 2.30516,1.94304 4.08348,1.94304 1.6246,0 2.95291,-0.7028 3.98476,-2.10788 v 2.04173 c 0,1.20748 -0.23038,2.03104 -0.69143,2.47014 -0.43909,0.43907 -1.18532,0.65835 -2.23914,0.65835 -1.22943,0 -1.8994,-0.46078 -2.00918,-1.38286 l -4.08347,-0.49402 c -0.10977,1.31726 0.34041,2.34896 1.35031,3.09541 1.03185,0.74645 2.65623,1.11983 4.8736,1.11983 2.34911,0 3.98511,-0.48301 4.9072,-1.449 0.94403,-0.94404 1.41593,-2.66745 1.41593,-5.17023 v -11.78946 h -3.29334 v 1.77818 c -1.03186,-1.40507 -2.40411,-2.10788 -4.11654,-2.10788 z m -79.067526,1.2516 c -1.800251,0 -3.282151,0.74625 -4.445725,2.23914 v -1.90996 h -3.260267 v 13.00799 h 3.5233 v -5.86165 c 0,-2.45887 0.296598,-3.91906 0.889352,-4.3801 0.592775,-0.48299 1.273344,-0.7245 2.041734,-0.7245 0.856221,0 1.427157,0.3183 1.712558,0.95498 0.307364,0.61471 0.460957,1.73436 0.460957,3.35897 v 6.6523 h 3.523816 v -8.13387 c 0,-3.46878 -1.481894,-5.2033 -4.445725,-5.2033 z m 28.024127,0 c -1.141614,0 -2.151618,0.71341 -3.029789,2.14044 v -1.81126 h -3.292821 v 13.00799 h 3.523816 v -3.98477 c 0,-2.5906 0.175318,-4.314 0.526581,-5.17022 0.351272,-0.87817 0.95504,-1.31723 1.811261,-1.31723 0.504936,0 1.075881,0.20868 1.712556,0.6258 l 1.020609,-2.86494 c -0.680583,-0.41714 -1.437953,-0.62581 -2.272213,-0.62581 z m 38.892199,0 c -1.80025,0 -3.28213,0.74625 -4.44572,2.23914 v -1.90996 h -3.26027 v 13.00799 h 3.5233 v -5.86165 c 0,-2.45887 0.29658,-3.91906 0.88935,-4.3801 0.59277,-0.48299 1.27334,-0.7245 2.04174,-0.7245 0.85622,0 1.42714,0.3183 1.71256,0.95498 0.30735,0.61471 0.46095,1.73436 0.46095,3.35897 v 6.6523 h 3.52382 v -8.13387 c 0,-3.46878 -1.4819,-5.2033 -4.44573,-5.2033 z m -59.737434,0.32918 v 13.00799 h 3.523811 v -13.00799 z m 24.335984,0 v 13.00799 h 3.52381 v -13.00799 z m 21.40541,0 v 13.00799 h 3.52381 v -13.00799 z m 27.06966,0.79065 c 2.01979,0 3.02979,1.41572 3.02979,4.2478 0,2.78822 -1.02111,4.18269 -3.06286,4.18269 -1.93198,0 -2.89801,-1.4162 -2.89801,-4.24832 0,-2.78819 0.97714,-4.18217 2.93108,-4.18217 z m -36.25722,1.18546 c 1.9759,0 2.96365,1.49303 2.96365,4.4788 0,1.27335 -0.26375,2.31617 -0.79065,3.12849 -0.5269,0.8123 -1.2403,1.21801 -2.14044,1.21801 -1.99785,0 -2.99672,-1.55869 -2.99672,-4.6762 0,-2.76624 0.98827,-4.1491 2.96416,-4.1491 z" />
    </clipPath>
    <filter
       style="color-interpolation-filters:sRGB"
       id="filter180376"
       x="-0.0070610909"
       y="-0.0088963901"
       width="1.0141222"
       height="1.0177928">
      <feGaussianBlur
         stdDeviation="0.41542494"
         id="feGaussianBlur180378" />
    </filter>
  </defs>
  <g
     id="layer1"
     transform="translate(-142.27317,-130.23796)">
    <path
       id="path164102"
       style="font-size:40px;line-height:1.25;font-family:Gidugu;-inkscape-font-specification:'Gidugu, Normal';white-space:pre;fill:#e6e6e6;stroke-width:0.925372"
       d="m 198.28835,130.23796 c 0,0 -1.59121,0.65839 -3.8039,2.66392 -2.1795,1.97546 -5.0256,5.48488 -6.28127,10.71097 -0.60802,2.56087 -0.78191,5.38985 -0.4005,8.27443 -0.98916,-1.17322 -2.0468,-1.951 -2.88922,-2.44533 -1.2955,-0.76021 -2.11667,-0.93327 -2.11667,-0.93327 0,0 0.5804,0.61533 1.25263,1.80092 0.67337,1.18761 1.37592,2.92996 1.44023,4.94698 0.07,1.98649 -0.4922,4.13867 -1.67277,5.81722 -0.95858,1.50597 -2.5651,2.75547 -4.36252,4.4881 -0.80422,0.71611 -1.6372,1.49767 -2.45618,2.3952 -1.05978,1.16147 -2.10408,2.52757 -2.99723,4.12688 -2.37938,4.46378 -2.28927,9.3071 -0.86093,13.04882 1.36551,3.54372 3.72249,5.69788 5.43998,6.83214 1.74857,1.15477 2.92229,1.4273 2.92229,1.4273 0,0 -0.81413,-0.90116 -1.68258,-2.57194 -0.87779,-1.68873 -1.69493,-4.07267 -1.63452,-6.73498 0.0508,-2.7841 1.05952,-5.63841 2.72438,-7.79591 0.70774,-0.99206 1.6925,-1.96144 2.76572,-3.07423 0.54576,-0.56589 1.12267,-1.17679 1.7048,-1.84227 1.86266,-1.97573 3.66525,-4.51672 4.68551,-7.60057 0.0177,-0.0579 0.0337,-0.11625 0.0506,-0.17415 0.24947,0.44243 0.52221,0.87807 0.82217,1.30329 0.86181,1.17897 1.79359,2.16717 2.71301,2.99981 0.80166,0.72599 1.59974,1.33896 2.36213,1.89601 1.61249,1.27247 3.01953,2.16825 3.96824,3.34501 1.19323,1.35698 1.94667,3.22238 2.16317,5.03691 0.22473,1.83791 -0.10651,3.5232 -0.49196,4.70617 -0.38446,1.18005 -0.77308,1.83141 -0.77308,1.83141 0,0 0.65325,-0.28431 1.61696,-1.1715 0.96366,-0.88715 2.2555,-2.45184 2.97242,-4.9196 0.28167,-0.97727 0.45792,-2.07834 0.48266,-3.24786 0.0324,0.0404 0.0665,0.0806 0.0982,0.12144 1.88147,2.21599 2.96958,5.16546 3.15588,7.97884 0.19795,2.85022 -0.52803,5.40548 -1.29605,7.18251 -0.76609,1.77257 -1.48673,2.73161 -1.48673,2.73161 0,0 1.13184,-0.36688 2.84737,-1.62626 1.71556,-1.25934 4.05214,-3.52406 5.50716,-7.24038 1.43784,-3.69733 1.85446,-8.65185 -0.19947,-13.6741 -1.75092,-4.03492 -4.44057,-7.2774 -7.15822,-9.77046 -0.92593,-0.90856 -1.83647,-1.73309 -2.69389,-2.49443 -1.50114,-1.33288 -2.88158,-2.50544 -3.94188,-3.71657 -2.68963,-2.87937 -4.59324,-6.75573 -5.19555,-10.72647 -0.58681,-3.77302 0.0539,-7.30007 0.91777,-9.88674 0.85273,-2.55316 1.78181,-4.01887 1.78181,-4.01887 z m 8.1349,63.15428 h -3.52381 v 2.93057 h 3.52381 z m -24.92096,0 h -0.008 v 2.93057 h 3.52381 v -2.93057 z m 15.14017,-0.0661 v 6.58667 c -1.05381,-1.20749 -2.34925,-1.81125 -3.88607,-1.81125 -1.80025,0 -3.18311,0.61437 -4.1491,1.84381 -0.96599,1.22944 -1.44901,2.87605 -1.44901,4.93975 0,1.95393 0.49413,3.58942 1.48208,4.90668 1.00989,1.2953 2.37103,1.94303 4.08347,1.94303 1.7344,0 3.12837,-0.73513 4.18217,-2.20607 v 1.87689 h 3.29334 v -18.07951 z m -39.48441,0.0661 v 2.93057 h 3.52381 v -2.93057 z m 10.34045,0.29611 -3.58944,2.04173 v 2.66754 h -1.61386 v 2.47013 h 1.61386 v 6.02599 c 0,1.80026 0.19754,3.06288 0.59272,3.78737 0.41713,0.70253 1.37205,1.05368 2.86495,1.05368 1.0538,0 1.987,-0.17532 2.79931,-0.52658 l -0.26355,-2.43706 c -0.65864,0.24149 -1.15278,0.36225 -1.48208,0.36225 -0.35127,0 -0.59279,-0.16471 -0.72451,-0.49403 -0.13173,-0.35127 -0.1974,-1.08691 -0.1974,-2.20658 v -5.56504 h 2.37091 v -2.47013 h -2.37091 z m 61.54818,3.22719 c -1.95394,0 -3.38075,0.68058 -4.28088,2.04174 -0.87817,1.36117 -1.31723,2.93098 -1.31723,4.70927 0,1.80025 0.47191,3.34833 1.41593,4.64364 0.94404,1.29529 2.30516,1.94304 4.08348,1.94304 1.6246,0 2.95291,-0.7028 3.98476,-2.10788 v 2.04173 c 0,1.20748 -0.23038,2.03104 -0.69143,2.47014 -0.43909,0.43907 -1.18532,0.65835 -2.23914,0.65835 -1.22943,0 -1.8994,-0.46078 -2.00918,-1.38286 l -4.08347,-0.49402 c -0.10977,1.31726 0.34041,2.34896 1.35031,3.09541 1.03185,0.74645 2.65623,1.11983 4.8736,1.11983 2.34911,0 3.98511,-0.48301 4.9072,-1.449 0.94403,-0.94404 1.41593,-2.66745 1.41593,-5.17023 v -11.78946 h -3.29334 v 1.77818 c -1.03186,-1.40507 -2.40411,-2.10788 -4.11654,-2.10788 z m -79.06752,1.2516 c -1.80025,0 -3.28215,0.74625 -4.44573,2.23914 v -1.90996 h -3.26026 v 13.00799 h 3.5233 v -5.86165 c 0,-2.45887 0.29659,-3.91906 0.88935,-4.3801 0.59277,-0.48299 1.27334,-0.7245 2.04173,-0.7245 0.85622,0 1.42716,0.3183 1.71256,0.95498 0.30736,0.61471 0.46096,1.73436 0.46096,3.35897 v 6.6523 h 3.52381 v -8.13387 c 0,-3.46878 -1.48189,-5.2033 -4.44572,-5.2033 z m 28.02413,0 c -1.14162,0 -2.15162,0.71341 -3.02979,2.14044 v -1.81126 h -3.29282 v 13.00799 h 3.52381 v -3.98477 c 0,-2.5906 0.17532,-4.314 0.52658,-5.17022 0.35127,-0.87817 0.95504,-1.31723 1.81126,-1.31723 0.50494,0 1.07589,0.20868 1.71256,0.6258 l 1.02061,-2.86494 c -0.68058,-0.41714 -1.43795,-0.62581 -2.27221,-0.62581 z m 38.89219,0 c -1.80025,0 -3.28213,0.74625 -4.44572,2.23914 v -1.90996 h -3.26027 v 13.00799 h 3.5233 v -5.86165 c 0,-2.45887 0.29658,-3.91906 0.88935,-4.3801 0.59277,-0.48299 1.27334,-0.7245 2.04174,-0.7245 0.85622,0 1.42714,0.3183 1.71256,0.95498 0.30735,0.61471 0.46095,1.73436 0.46095,3.35897 v 6.6523 h 3.52382 v -8.13387 c 0,-3.46878 -1.4819,-5.2033 -4.44573,-5.2033 z m -59.73743,0.32918 v 13.00799 h 3.52381 v -13.00799 z m 24.33598,0 v 13.00799 h 3.52381 v -13.00799 z m 21.40541,0 v 13.00799 h 3.52381 v -13.00799 z m 27.06966,0.79065 c 2.01979,0 3.02979,1.41572 3.02979,4.2478 0,2.78822 -1.02111,4.18269 -3.06286,4.18269 -1.93198,0 -2.89801,-1.4162 -2.89801,-4.24832 0,-2.78819 0.97714,-4.18217 2.93108,-4.18217 z m -36.25722,1.18546 c 1.9759,0 2.96365,1.49303 2.96365,4.4788 0,1.27335 -0.26375,2.31617 -0.79065,3.12849 -0.5269,0.8123 -1.2403,1.21801 -2.14044,1.21801 -1.99785,0 -2.99672,-1.55869 -2.99672,-4.6762 0,-2.76624 0.98827,-4.1491 2.96416,-4.1491 z" />
    <path
       id="rect180200"
       style="opacity:0.623014;fill:#000000;fill-opacity:1;stroke:none;stroke-width:0.3;stroke-linecap:round;stroke-linejoin:round;filter:url(#filter180376)"
       d="M 37.648725,116.22382 V 228.29398 H 178.84785 V 116.22382 Z m 79.523315,13.32735 c 0,0 -0.92907,1.46572 -1.7818,4.01888 -0.86387,2.58667 -1.50459,6.11371 -0.91778,9.88673 0.60231,3.97074 2.50592,7.84711 5.19555,10.72648 1.0603,1.21113 2.44074,2.38369 3.94188,3.71657 0.85742,0.76134 1.76796,1.58586 2.69389,2.49442 2.71764,2.49306 5.40729,5.73554 7.15821,9.77046 2.05393,5.02225 1.63731,9.97677 0.19947,13.6741 -1.45502,3.71632 -3.79159,5.98105 -5.50715,7.24039 -1.71553,1.25938 -2.84737,1.62625 -2.84737,1.62625 v 2.93057 h -3.52382 v -2.93057 h 3.52382 c 0,0 0.72064,-0.95904 1.48673,-2.73161 0.76802,-1.77703 1.49399,-4.33229 1.29604,-7.18251 -0.1863,-2.81338 -1.27441,-5.76285 -3.15588,-7.97884 -0.0317,-0.0408 -0.0658,-0.081 -0.0982,-0.12144 -0.0247,1.16952 -0.20099,2.27059 -0.48266,3.24786 -0.71692,2.46776 -2.00877,4.03245 -2.97243,4.9196 -0.96371,0.88719 -1.61696,1.17151 -1.61696,1.17151 0,0 0.38862,-0.65137 0.77308,-1.83142 0.38545,-1.18297 0.71669,-2.86826 0.49196,-4.70617 -0.2165,-1.81453 -0.96994,-3.67992 -2.16317,-5.0369 -0.94871,-1.17676 -2.35574,-2.07255 -3.96823,-3.34502 -0.7624,-0.55705 -1.56047,-1.17002 -2.36214,-1.89601 -0.91941,-0.83264 -1.8512,-1.82084 -2.71301,-2.99981 -0.29996,-0.42522 -0.5727,-0.86085 -0.82217,-1.30328 -0.0169,0.0579 -0.0329,0.11625 -0.0506,0.17415 -1.02026,3.08385 -2.82284,5.62484 -4.68551,7.60057 -0.58212,0.66548 -1.15904,1.27637 -1.7048,1.84226 -1.07322,1.11279 -2.05798,2.08217 -2.765722,3.07423 -1.664854,2.1575 -2.67358,5.01181 -2.72438,7.79591 -0.0604,2.66231 0.756732,5.04626 1.63453,6.73499 0.86845,1.67078 1.682572,2.57193 1.682572,2.57193 h 3.51556 v 2.93057 h -3.52381 v -2.93057 h 0.008 c 0,0 -1.173732,-0.27253 -2.922304,-1.4273 -1.71749,-1.13426 -4.074469,-3.28842 -5.439979,-6.83214 -1.428334,-3.74172 -1.518443,-8.58504 0.860931,-13.04882 0.893148,-1.5993 1.937459,-2.9654 2.997234,-4.12687 0.818981,-0.89753 1.651955,-1.6791 2.45618,-2.39521 1.797418,-1.73263 3.403948,-2.98213 4.362528,-4.4881 1.18057,-1.67855 1.74277,-3.83072 1.67277,-5.81721 -0.0643,-2.01702 -0.76685,-3.75938 -1.44022,-4.94699 -0.67223,-1.18559 -1.25264,-1.80092 -1.25264,-1.80092 0,0 0.82117,0.17307 2.11667,0.93328 0.84242,0.49433 1.90007,1.2721 2.88923,2.44532 -0.38141,-2.88458 -0.20753,-5.71356 0.40049,-8.27443 1.25567,-5.22609 4.10177,-8.73551 6.28127,-10.71097 2.21269,-2.00553 3.8039,-2.66392 3.8039,-2.66392 z m -1.64589,63.08814 h 3.55689 v 18.07951 h -3.29334 v -1.87688 c -1.0538,1.47094 -2.44778,2.20606 -4.18218,2.20606 -1.71244,0 -3.07358,-0.64773 -4.08347,-1.94303 -0.98795,-1.31726 -1.48208,-2.95275 -1.48208,-4.90668 0,-2.0637 0.48302,-3.71031 1.44901,-4.93975 0.96599,-1.22944 2.34885,-1.84381 4.1491,-1.84381 1.53682,0 2.83226,0.60377 3.88607,1.81126 z m -39.484421,0.0661 h 3.523816 v 2.93057 h -3.523816 z m 10.340454,0.29611 v 4.70927 h 2.370915 v 2.47014 h -2.370915 v 5.56503 c 0,1.11967 0.06567,1.85532 0.197403,2.20658 0.131715,0.32933 0.373234,0.49403 0.724503,0.49403 0.329306,0 0.823447,-0.12076 1.482082,-0.36225 l 0.263549,2.43706 c -0.812311,0.35126 -1.745509,0.52658 -2.799313,0.52658 -1.492895,0 -2.447811,-0.35115 -2.86494,-1.05368 -0.395182,-0.72449 -0.59273,-1.9871 -0.59273,-3.78736 v -6.02599 h -1.613855 v -2.47014 h 1.613855 v -2.66753 z m 61.548177,3.22719 c 1.71244,0 3.08469,0.70281 4.11654,2.10788 v -1.77818 h 3.29334 v 11.78946 c 0,2.50278 -0.4719,4.22619 -1.41593,5.17023 -0.92209,0.96599 -2.55809,1.449 -4.90719,1.449 -2.21736,0 -3.84175,-0.37337 -4.87361,-1.11982 -1.0099,-0.74645 -1.46007,-1.77816 -1.3503,-3.09542 l 4.08347,0.49402 c 0.10978,0.92209 0.77975,1.38287 2.00918,1.38287 1.05382,0 1.80005,-0.21929 2.23914,-0.65836 0.46105,-0.4391 0.69143,-1.26265 0.69143,-2.47014 v -2.04173 c -1.03185,1.40508 -2.36017,2.10788 -3.98477,2.10788 -1.77832,0 -3.13943,-0.64774 -4.08347,-1.94303 -0.94402,-1.29531 -1.41594,-2.8434 -1.41594,-4.64365 0,-1.77829 0.43906,-3.3481 1.31723,-4.70927 0.90013,-1.36116 2.32694,-2.04174 4.28088,-2.04174 z m -79.067523,1.25161 c 2.963834,0 4.445725,1.73452 4.445725,5.2033 v 8.13387 h -3.523816 v -6.65231 c 0,-1.62461 -0.15359,-2.74426 -0.460954,-3.35897 -0.285404,-0.63668 -0.856335,-0.95498 -1.712556,-0.95498 -0.768392,0 -1.448961,0.24151 -2.041736,0.7245 -0.592757,0.46105 -0.889352,1.92123 -0.889352,4.3801 v 5.86166 h -3.5233 V 197.8095 h 3.260267 v 1.90996 c 1.163574,-1.49289 2.645474,-2.23914 4.445722,-2.23914 z m 28.02413,0 c 0.83426,0 1.591632,0.20866 2.272211,0.6258 l -1.020608,2.86494 c -0.636672,-0.41712 -1.207619,-0.6258 -1.712555,-0.6258 -0.856221,0 -1.459987,0.43906 -1.811261,1.31723 -0.351263,0.85622 -0.526582,2.57963 -0.526582,5.17023 v 3.98477 H 90.564356 V 197.8095 h 3.292822 v 1.81125 c 0.87817,-1.42703 1.888175,-2.14043 3.029789,-2.14043 z m 38.892203,0 c 2.96383,0 4.44573,1.73452 4.44573,5.2033 v 8.13387 h -3.52382 v -6.65231 c 0,-1.62461 -0.15361,-2.74426 -0.46095,-3.35897 -0.28542,-0.63668 -0.85634,-0.95498 -1.71256,-0.95498 -0.7684,0 -1.44897,0.24151 -2.04173,0.7245 -0.59277,0.46105 -0.88936,1.92123 -0.88936,4.3801 v 5.86166 h -3.52331 V 197.8095 h 3.26027 v 1.90996 c 1.16359,-1.49289 2.64547,-2.23914 4.44573,-2.23914 z m -59.737441,0.32918 h 3.523816 v 13.00799 h -3.523816 z m 24.335991,0 h 3.52381 v 13.00799 h -3.52381 z m 21.40541,0 h 3.52382 v 13.00799 h -3.52382 z m 27.06966,0.79065 c -1.95394,0 -2.93108,1.39398 -2.93108,4.18217 0,2.83212 0.96602,4.24832 2.89801,4.24832 2.04175,0 3.06286,-1.39447 3.06286,-4.18269 0,-2.83208 -1.00999,-4.2478 -3.02979,-4.2478 z m -36.25721,1.18545 c -1.97589,0 -2.96416,1.38286 -2.96416,4.1491 0,3.11751 0.99886,4.6762 2.99671,4.6762 0.90014,0 1.61354,-0.40571 2.14044,-1.21801 0.5269,-0.81232 0.79065,-1.85514 0.79065,-3.12849 0,-2.98577 -0.98774,-4.4788 -2.96364,-4.4788 z"
       clip-path="url(#clipPath180372)"
       transform="translate(81.431604,0.99067095)" />
  </g>
</svg>
